Coordinates
version=1
nRows=26
nColumns=24
inDegrees=yes

Units are S.I. units (second, meters, Newtons, ...)
Angles are in degrees.

endheader
time	pelvis_tilt	pelvis_list	pelvis_rotation	pelvis_tx	pelvis_ty	pelvis_tz	hip_flexion_r	hip_adduction_r	hip_rotation_r	knee_angle_r	ankle_angle_r	subtalar_angle_r	mtp_angle_r	hip_flexion_l	hip_adduction_l	hip_rotation_l	knee_angle_l	ankle_angle_l	subtalar_angle_l	mtp_angle_l	lumbar_extension	lumbar_bending	lumbar_rotation
      3.84000000	    -20.18144203	     -1.00092067	     12.20384336	     -1.79916883	     -0.03444428	     -0.25986029	     47.24528657	     -3.34550258	      5.51386955	     -8.82284706	     -5.40841459	    -10.37419661	     15.79562321	     -1.72387581	      3.34376299	     20.61107676	    -11.84864050	     15.13714314	     10.26283430	    -51.39971914	     12.49414789	     -2.86719696	    -12.59119868
      3.84500000	    -20.22774267	     -1.16338713	     12.31045260	     -1.79047207	     -0.03610763	     -0.25978651	     47.55101524	     -3.16800044	      5.72202536	    -10.12688608	     -5.64851672	    -10.65803051	     15.42150792	     -1.67593640	      3.16633323	     20.30130198	    -12.87659370	     15.03435864	     10.93149210	    -50.74348209	     12.67385514	     -2.70740476	    -12.69408721
      3.85000000	    -20.18744848	     -1.35663911	     12.49392021	     -1.78177872	     -0.03754683	     -0.25988510	     47.71858766	     -3.02279951	      5.69334335	    -11.37134516	     -6.20059451	    -10.95357206	     15.38806898	     -1.69256555	      2.94975308	     20.24363845	    -13.92328085	     14.83968045	     11.44225343	    -50.29982102	     12.75936031	     -2.50158055	    -12.93153373
      3.85500000	    -20.16598027	     -1.47909556	     12.48753200	     -1.77289022	     -0.03905782	     -0.25998528	     47.91987480	     -2.82831438	      5.54970982	    -12.50505896	     -7.47005704	    -11.60676723	     17.80949801	     -1.85796184	      2.81803086	     19.99100933	    -14.42750253	     11.18835547	     11.09241946	    -34.40207025	     12.88238501	     -2.29341516	    -12.88566859
      3.86000000	    -20.08359852	     -1.73644091	     12.48074581	     -1.76387125	     -0.04033308	     -0.25974131	     48.07054178	     -2.42887092	      5.46627623	    -13.90127417	     -8.07031606	    -11.75884351	     14.94419339	     -1.89383834	      2.48463309	     19.45133969	    -15.35500879	      9.86390061	     11.52950925	    -29.58435071	     12.97071099	     -1.97730761	    -12.90599355
      3.86500000	    -20.13859691	     -1.91502835	     12.45753757	     -1.75498302	     -0.04168596	     -0.25967717	     48.35819959	     -2.18702773	      5.08742030	    -14.97772928	     -9.99270808	    -12.72439314	     17.18497123	     -1.75358159	      2.28288419	     18.75693407	    -16.20633949	      7.59904499	     11.69433506	    -21.26126178	     13.17701513	     -1.73895558	    -12.89848532
      3.87000000	    -20.13554056	     -2.14777709	     12.32358986	     -1.74599051	     -0.04287589	     -0.25930853	     48.69982434	     -1.76135001	      4.71777656	    -16.52623627	    -10.46310449	    -12.28944139	     13.61172002	     -1.58195328	      1.96500909	     17.66828258	    -17.18434367	      5.63304394	     12.18445104	    -14.61748340	     13.33541263	     -1.42403167	    -12.76734885
      3.87500000	    -20.19845758	     -2.35736584	     12.16627945	     -1.73706686	     -0.04398972	     -0.25897770	     49.04444547	     -1.37526960	      4.42005821	    -17.74530089	    -11.99201164	    -12.90168939	     13.52921765	     -1.30729271	      1.67635026	     16.50589061	    -18.09631007	      3.12432490	     12.41096487	     -6.52854687	     13.54680725	     -1.12955790	    -12.60978524
      3.88000000	    -20.25311532	     -2.58353300	     11.92489093	     -1.72811566	     -0.04497615	     -0.25843634	     49.42023251	     -0.86773445	      4.28690235	    -19.17122396	    -12.69290582	    -12.98181947	     10.63257476	     -0.95811085	      1.33606998	     15.16878362	    -19.16915410	      0.94579199	     12.86013110	     -0.68847349	     13.74728478	     -0.80726707	    -12.35543651
      3.88500000	    -20.32343353	     -2.82706095	     11.67466434	     -1.71920464	     -0.04583283	     -0.25788665	     49.77924284	     -0.33604753	      4.20501433	    -20.51955131	    -13.33829067	    -13.23636129	      8.26908188	     -0.52297085	      0.95252593	     13.75998456	    -20.26161266	     -1.53885533	     13.22760660	      5.58720424	     13.95934223	     -0.46511440	    -12.10988940
      3.89000000	    -20.38894534	     -3.08227922	     11.39267985	     -1.71031182	     -0.04656697	     -0.25725836	     50.11236827	      0.25729809	      4.21788928	    -21.88092501	    -13.56978766	    -13.43361373	      5.43106291	     -0.02380859	      0.52411421	     12.29978074	    -21.42861975	     -4.10312040	     13.60854910	     11.18265623	     14.16052150	     -0.10706661	    -11.83202784
      3.89500000	    -20.43695235	     -3.37061316	     11.07695796	     -1.70140436	     -0.04717483	     -0.25655743	     50.37546033	      0.93783698	      4.34799929	    -23.19590601	    -13.45042081	    -13.65736514	      2.47276534	      0.51626671	      0.02458541	     10.82238135	    -22.64461523	     -6.80853762	     13.94786520	     16.28823553	     14.34671976	      0.29160294	    -11.54337953
      3.90000000	    -20.45473016	     -3.64083765	     10.73324034	     -1.69256381	     -0.04765509	     -0.25576497	     50.56901962	      1.65734918	      4.51994982	    -24.48524943	    -12.99887161	    -13.87509627	     -0.44199070	      1.07225533	     -0.48618688	      9.41379715	    -23.90941106	     -9.64397373	     14.26062431	     20.70116713	     14.48311050	      0.67633395	    -11.18332845
      3.90500000	    -20.44417809	     -3.93213967	     10.36697130	     -1.68375584	     -0.04800562	     -0.25494538	     50.66748441	      2.43551232	      4.74032012	    -25.69357155	    -12.30426523	    -14.09214846	     -3.12079785	      1.64768470	     -1.03125621	      8.12900996	    -25.23447122	    -12.56751511	     14.49183725	     24.15206541	     14.58521125	      1.09109780	    -10.81252512
      3.91000000	    -20.40346758	     -4.22181432	      9.98045476	     -1.67502613	     -0.04823314	     -0.25411196	     50.67242335	      3.24274105	      4.98427102	    -26.82139744	    -11.40169611	    -14.25728821	     -5.52082317	      2.23536334	     -1.57239533	      7.00670099	    -26.61998518	    -15.56003160	     14.62265316	     26.52751662	     14.64290878	      1.51407575	    -10.41990276
      3.91500000	    -20.36181775	     -4.46598202	      9.53402088	     -1.66639119	     -0.04836264	     -0.25333833	     50.58892728	      4.03705814	      5.29197605	    -27.74872030	    -10.87009907	    -14.63509325	     -5.82609774	      2.85668873	     -2.01825248	      6.11129414	    -28.14186336	    -18.34944169	     14.74955399	     26.37833775	     14.67845808	      1.92069698	     -9.92701753
      3.92000000	    -20.26824503	     -4.78596777	      9.18144256	     -1.65788168	     -0.04835971	     -0.25249486	     50.42963391	      4.84934422	      5.43290044	    -28.75769320	     -9.35223155	    -14.40054450	     -8.86549167	      3.52542186	     -2.57944981	      5.27182274	    -29.66393157	    -21.49124076	     14.58258647	     27.36624838	     14.65653877	      2.35522470	     -9.59679100
      3.92500000	    -20.13675210	     -5.01898426	      8.75001529	     -1.64953965	     -0.04822237	     -0.25164245	     50.13311574	      5.62932073	      5.68445510	    -29.49714694	     -8.62506161	    -14.63828978	     -9.00511637	      4.18768613	     -3.01179485	      4.53495943	    -31.31125841	    -24.37137246	     14.32547454	     26.12123612	     14.55023924	      2.73638283	     -9.13850795
      3.93000000	    -20.05570493	     -5.31739551	      8.34830742	     -1.64122029	     -0.04805705	     -0.25096127	     49.84628690	      6.36732410	      5.70814035	    -30.16871429	     -7.59022872	    -14.45263928	     -9.45677906	      5.00751954	     -3.45986169	      3.99738078	    -33.18009496	    -26.70206916	     14.13897760	     22.42881063	     14.51973713	      3.17493139	     -8.66521676
      3.93500000	    -19.92055622	     -5.55678045	      7.92656253	     -1.63308787	     -0.04775162	     -0.25017132	     49.43992032	      7.07660660	      5.79911154	    -30.71554482	     -6.72199240	    -14.35305046	     -9.39002380	      5.82643933	     -3.85928089	      3.39487229	    -35.08931696	    -28.93684088	     13.62497825	     18.51042793	     14.39189904	      3.55103868	     -8.19041889
      3.94000000	    -19.81753541	     -5.85059303	      7.58908581	     -1.62505397	     -0.04733345	     -0.24950238	     48.99365015	      7.72133064	      5.73345738	    -31.08482469	     -6.01639483	    -14.30468027	     -8.87031368	      6.78577061	     -4.27147490	      2.98745770	    -37.13398325	    -30.68252834	     12.98638071	     13.28801500	     14.30875126	      3.94435218	     -7.78785230
      3.94500000	    -19.70196658	     -6.10900092	      7.24092327	     -1.61715741	     -0.04687142	     -0.24877352	     48.48948129	      8.32433144	      5.68488303	    -31.35725763	     -5.39542397	    -14.20247625	     -7.82807042	      7.78738839	     -4.65954107	      2.51834192	    -39.24215908	    -31.99565607	     12.15479013	      7.71859346	     14.19134066	      4.30118990	     -7.38568728
      3.95000000	    -19.59624579	     -6.35586801	      6.89706814	     -1.60933848	     -0.04633581	     -0.24801834	     47.93577645	      8.88358318	      5.60761090	    -31.50090189	     -4.85739949	    -14.03891737	     -6.33995834	      8.84358498	     -5.03104472	      2.04510454	    -41.37426736	    -32.90325639	     11.05945559	      2.04507512	     14.07916224	      4.62520740	     -6.96907861
      3.95500000	    -19.51109394	     -6.57084550	      6.55753407	     -1.60162953	     -0.04574942	     -0.24727312	     47.36913900	      9.37202441	      5.45614531	    -31.55639699	     -4.39536687	    -13.82083435	     -4.49939468	      9.94238931	     -5.34900448	      1.62571809	    -43.48858798	    -33.39472727	      9.81112500	     -3.26378594	     13.97548414	      4.90594902	     -6.51515139
      3.96000000	    -19.43854770	     -6.77322760	      6.25528761	     -1.59398392	     -0.04506523	     -0.24659928	     46.75263265	      9.79733345	      5.30487383	    -31.48741852	     -4.00402666	    -13.58325880	     -2.37356082	     11.06867721	     -5.61330509	      1.31194387	    -45.56055599	    -33.47294494	      8.40241727	     -7.95988192	     13.89467870	      5.16192240	     -6.08844602
      3.96500000	    -19.39039473	     -6.94256090	      5.97479644	     -1.58639852	     -0.04430087	     -0.24595292	     46.11465283	     10.15158255	      5.13669190	    -31.32954989	     -3.61711500	    -13.26694499	     -0.09693088	     12.22843878	     -5.81083056	      1.07207228	    -47.56785642	    -33.24553869	      6.93814948	    -11.82738307	     13.83950085	      5.36785541	     -5.68500708
